<svg version="1.1" id="Layer_1" xmlns="http://www.w3.org/2000/svg" xmlns:xlink="http://www.w3.org/1999/xlink" x="0px" y="0px"
	 width="100%" viewBox="0 0 1024 1024" enable-background="new 0 0 1024 1024" xml:space="preserve">
<path fill="#000000" opacity="1.000000" stroke="none" 
	d="
M584.202637,297.037903 
	C586.262878,294.623779 588.018677,294.230133 588.090332,297.654205 
	C588.285461,306.981812 588.298462,316.319153 588.094055,325.646301 
	C588.012085,329.385651 585.371887,328.718567 583.041443,327.675995 
	C576.789185,324.879028 570.495544,322.263519 563.478516,322.238434 
	C563.012268,322.236755 562.545776,322.323730 561.898804,322.387207 
	C563.417297,324.984161 566.171509,325.684143 568.259583,327.202515 
	C588.709473,342.072693 588.897461,378.875702 558.927124,391.019897 
	C545.505127,396.458588 531.481628,397.273895 517.251770,396.760498 
	C512.261292,396.580444 507.247406,396.210571 502.279846,396.512726 
	C498.521484,396.741333 494.248749,397.296478 493.254395,402.047638 
	C492.193756,407.115631 495.526703,409.691132 499.582184,411.522949 
	C507.450134,415.076813 515.912170,415.819855 524.350830,416.689636 
	C538.081543,418.104828 551.964966,417.312012 565.634583,419.652435 
	C579.092896,421.956696 589.874634,427.936127 593.254517,442.089905 
	C596.626709,456.211456 593.919434,467.413666 583.419373,475.858948 
	C571.139832,485.735504 557.146362,490.518311 541.804077,492.342682 
	C527.350769,494.061340 512.844910,493.461426 498.370056,493.236755 
	C488.212006,493.079132 478.713348,489.887360 470.292694,484.054443 
	C461.530853,477.985107 461.682373,466.229797 470.482300,460.157410 
	C475.678467,456.571808 481.748383,455.329865 487.698242,453.767792 
	C489.379333,453.326447 491.055206,452.865021 493.255707,452.272095 
	C490.240448,450.109650 487.297607,450.183136 484.672577,449.309052 
	C474.723999,445.996368 468.607971,439.185699 466.928345,428.972687 
	C465.189178,418.397491 467.809204,409.167664 477.077362,402.560699 
	C483.240234,398.167450 490.323761,395.814117 497.954468,392.869629 
	C495.049194,391.704193 492.803436,390.802612 490.557220,389.902344 
	C478.731598,385.162750 470.586212,377.041290 468.836243,364.110687 
	C466.866455,349.555664 470.998260,337.036987 483.329224,328.052490 
	C493.873779,320.369598 506.028595,317.287964 518.724060,315.632446 
	C527.550537,314.481506 536.342346,315.777252 545.116150,315.597504 
	C560.547852,315.281311 573.966187,309.678558 584.202637,297.037903 
M504.362518,456.321442 
	C501.863129,456.328430 499.351044,456.174713 496.866608,456.371033 
	C487.563446,457.106110 482.715820,464.209381 485.241058,473.177734 
	C487.443207,480.998596 493.182587,484.810394 500.574158,486.571350 
	C512.211304,489.343781 524.069031,489.123688 535.865662,488.329468 
	C543.803284,487.795105 551.817932,486.914215 559.105774,483.199280 
	C563.834167,480.789032 568.858643,477.722290 568.269653,471.905182 
	C567.652466,465.809113 561.648438,464.389252 556.616455,463.385742 
	C539.662109,460.004456 522.408508,458.669067 504.362518,456.321442 
M518.890320,324.503113 
	C517.683105,327.065430 516.751648,329.699768 516.210327,332.505707 
	C513.893677,344.513428 513.894897,356.653381 514.628967,368.750763 
	C514.976196,374.473358 515.040466,380.434570 517.572693,385.838379 
	C519.275574,389.472290 521.807251,392.606323 526.124512,392.469788 
	C530.650696,392.326630 533.797485,389.543396 535.429932,385.296173 
	C536.020935,383.758514 536.223694,382.076324 536.723755,380.498169 
	C538.258606,375.654694 537.689270,370.597870 538.180054,365.655396 
	C539.433167,353.035095 538.443604,340.446259 536.260437,327.977600 
	C535.570068,324.034790 533.553467,320.569183 529.292542,319.699341 
	C525.232544,318.870453 521.837036,320.588593 518.890320,324.503113 
z"/>
<path fill="#000000" opacity="1.000000" stroke="none" 
	d="
M315.598938,672.121155 
	C318.040680,680.000977 324.353821,675.352661 328.679169,676.474670 
	C328.995361,678.686890 327.527130,679.421509 326.281189,680.112610 
	C313.513245,687.194275 299.975342,690.179443 285.434326,687.572327 
	C275.668030,685.821228 269.145752,680.546509 267.260468,670.087280 
	C263.168915,673.303589 259.469238,676.346252 255.631577,679.203674 
	C243.534058,688.211060 230.285568,690.071594 215.940216,685.654297 
	C204.388947,682.097229 198.459549,673.925903 196.837845,662.451721 
	C194.131439,643.302612 201.754440,630.361450 219.581635,622.721375 
	C233.368958,616.812561 247.884628,612.971863 261.868439,607.615601 
	C265.609894,606.182617 266.983582,604.242615 266.736572,600.261475 
	C266.129944,590.484375 267.438446,580.655029 265.738373,570.875854 
	C264.851959,565.777100 262.452454,562.264954 257.585602,560.521545 
	C251.887039,558.480164 246.421997,559.051880 241.399414,562.417297 
	C239.282745,563.835510 238.769806,565.740906 240.875641,567.826294 
	C242.529068,569.463745 244.175751,571.142273 245.584808,572.986389 
	C253.264008,583.036438 250.160599,595.468445 238.616821,600.752808 
	C234.008224,602.862488 229.093979,603.728882 224.016190,603.220825 
	C215.046860,602.323425 208.039230,597.197754 206.207260,589.524170 
	C204.129120,580.819397 206.889069,573.353027 213.639908,567.586121 
	C222.340683,560.153442 233.042831,557.068237 244.000916,556.070862 
	C260.597687,554.560181 277.240906,554.795532 293.255981,560.676453 
	C306.238708,565.443970 313.774445,576.576355 314.455627,590.371521 
	C315.294739,607.366150 314.061127,624.325684 314.377747,641.303284 
	C314.567047,651.452759 314.186218,661.615417 315.598938,672.121155 
M262.004272,666.609985 
	C265.532898,665.509155 266.758484,663.157349 266.718536,659.450989 
	C266.559143,644.662170 266.669220,629.870605 266.619232,615.080261 
	C266.614532,613.695496 267.222870,612.048889 265.380249,610.809143 
	C258.304596,613.790344 252.945984,618.725403 249.677292,625.806396 
	C244.997467,635.944031 244.181458,646.571899 246.297379,657.425537 
	C247.868759,665.486084 253.225052,668.721069 262.004272,666.609985 
z"/>
<path fill="#000000" opacity="1.000000" stroke="none" 
	d="
M714.841919,684.102539 
	C691.971375,691.340759 670.078735,690.692932 649.702759,677.846008 
	C632.745789,667.154663 624.252991,650.973206 622.792542,631.261780 
	C621.918518,619.465759 622.593689,607.651184 626.290771,596.221497 
	C633.582336,573.679321 655.176758,557.042847 679.545105,554.585083 
	C690.501343,553.480042 701.072571,554.374023 711.536194,557.616211 
	C728.438416,562.853455 740.946228,573.548340 747.885803,589.583557 
	C757.674622,612.202637 759.784851,635.304749 746.889526,657.690308 
	C739.666809,670.228577 728.703003,678.743103 714.841919,684.102539 
M672.080322,614.500305 
	C672.078003,620.324768 671.957764,626.152100 672.097229,631.973206 
	C672.414978,645.236328 671.869934,658.600342 675.991516,671.484558 
	C677.953735,677.618713 680.856262,683.035278 688.218079,683.592163 
	C693.796814,684.014221 698.519836,679.508667 701.242004,671.708862 
	C701.514832,670.927124 701.651855,670.099060 701.892883,669.304932 
	C703.835327,662.906006 704.564148,656.339783 704.953735,649.680237 
	C706.256653,627.407593 706.361023,605.135620 704.424683,582.912537 
	C703.855408,576.379761 702.982178,569.662903 699.022827,563.936218 
	C693.642456,556.153992 683.305664,556.398071 678.343933,564.481201 
	C676.846985,566.919861 676.011047,569.607422 675.325928,572.360474 
	C671.958313,585.894714 672.280518,599.717590 672.080322,614.500305 
z"/>
<path fill="#000000" opacity="1.000000" stroke="none" 
	d="
M433.503906,600.468994 
	C429.139954,605.023926 424.086395,607.797302 418.672028,610.125244 
	C414.691101,611.836914 413.640167,610.394470 413.623413,606.570129 
	C413.600922,601.435181 414.208710,596.252808 412.665222,591.187866 
	C411.931366,588.779785 411.106354,586.456970 409.614471,584.402344 
	C404.361603,577.167847 397.257690,577.227295 392.143738,584.520020 
	C389.501831,588.287537 387.646729,592.487183 387.466980,596.995544 
	C386.551453,619.954834 386.831818,642.929565 386.971680,665.901306 
	C387.020508,673.920349 391.083771,678.940674 398.287201,681.852539 
	C399.428558,682.313843 400.958832,682.455505 401.460358,684.719971 
	C377.000519,684.719971 352.700867,684.719971 328.434479,684.719971 
	C328.387360,684.082947 328.307190,683.830017 328.373810,683.782227 
	C337.607544,677.174133 337.865387,667.579102 337.741211,657.472778 
	C337.448608,633.658386 337.662964,609.837952 337.638550,586.019958 
	C337.628143,575.874756 339.180878,565.066345 326.597656,560.470520 
	C327.998169,558.008972 329.681641,558.701294 331.019592,558.697083 
	C347.841888,558.644043 364.665527,558.774536 381.486145,558.599060 
	C385.793427,558.554199 387.547516,559.978455 387.351410,564.344666 
	C387.115356,569.600769 387.295563,574.875610 387.295563,581.144104 
	C390.942627,575.962585 393.781891,571.532776 397.021057,567.417664 
	C402.164490,560.883240 408.868805,556.543640 417.240021,555.782898 
	C433.970245,554.262329 446.071747,569.034851 441.806213,585.449158 
	C440.354584,591.035217 437.577698,595.911560 433.503906,600.468994 
z"/>
<path fill="#000000" opacity="1.000000" stroke="none" 
	d="
M594.538330,577.462830 
	C588.255615,570.079224 581.097412,564.559570 572.061768,561.725708 
	C563.290283,558.974670 557.052795,560.413147 553.769653,565.985291 
	C549.867981,572.607178 551.665283,582.341736 557.902771,587.815063 
	C561.179626,590.690491 565.025024,592.709839 568.899475,594.659790 
	C578.111816,599.296021 587.731323,603.130859 596.430420,608.777466 
	C614.646606,620.601562 622.232239,641.928894 614.364075,660.889648 
	C607.804443,676.697449 594.455383,683.902161 578.541260,687.261963 
	C564.718994,690.180054 551.440369,687.827209 538.476562,682.818542 
	C537.545044,682.458679 536.627808,682.060059 535.688721,681.721863 
	C527.338440,678.715027 523.868225,679.451904 517.322388,686.146301 
	C517.322388,670.961304 517.322388,656.445557 517.322388,641.595154 
	C521.560669,642.578247 522.118835,646.215088 523.285278,649.067566 
	C527.201965,658.646118 532.680603,667.078003 540.733765,673.655579 
	C548.251892,679.795959 556.521912,684.051697 566.640930,683.739441 
	C574.302795,683.502991 579.521912,680.502441 581.761536,674.549622 
	C584.262939,667.901306 582.543579,659.834351 577.458252,655.215088 
	C571.438599,649.747192 563.939514,646.779663 556.743042,643.340088 
	C548.032715,639.177124 539.151794,635.334473 531.348145,629.522278 
	C518.473389,619.933044 511.563477,607.296448 514.012146,591.121643 
	C516.561279,574.282959 527.641479,564.229065 543.169006,558.761963 
	C554.812500,554.662537 566.658508,554.716370 578.509216,558.050049 
	C580.749939,558.680359 583.001465,559.287048 585.205139,560.031555 
	C592.888550,562.627258 600.575439,565.512451 607.802124,556.180481 
	C607.802124,570.991638 607.802124,584.075684 607.802124,597.159729 
	C607.383667,597.374695 606.965271,597.589661 606.546814,597.804626 
	C602.855164,590.960022 599.889832,583.638428 594.538330,577.462830 
z"/>
<path fill="#000000" opacity="1.000000" stroke="none" 
	d="
M787.000122,558.650818 
	C798.535950,558.650757 809.571716,558.650757 820.356567,558.650757 
	C820.895996,561.127380 819.710327,561.376587 818.897217,561.779663 
	C812.070557,565.163879 809.861816,568.122803 811.556335,575.615540 
	C815.711243,593.987122 823.172852,611.237061 830.291321,628.511047 
	C832.617310,628.217896 832.651855,626.590759 833.116577,625.518799 
	C839.465149,610.873962 846.376465,596.442566 850.721680,581.012390 
	C852.950317,573.097961 853.182983,565.726501 844.208496,561.450012 
	C843.745850,561.229614 843.565186,560.417480 842.862183,559.208008 
	C853.571594,559.208008 863.697571,559.208008 873.832214,559.208008 
	C873.878418,559.607178 874.053101,560.134766 873.932495,560.214233 
	C862.509583,567.743164 858.160522,579.893250 853.203430,591.691711 
	C836.571533,631.277649 819.592896,670.713684 801.761353,709.777344 
	C799.475159,714.785828 796.825439,719.593811 793.512573,724.013123 
	C786.895996,732.839478 777.744812,735.744995 767.161011,735.284790 
	C764.206360,735.156311 762.619568,733.830627 762.652771,730.615723 
	C762.744141,721.789429 762.776917,712.959778 762.634399,704.134705 
	C762.561462,699.617798 764.925354,699.116394 768.411255,700.138489 
	C772.877869,701.448242 777.267822,702.854797 782.047668,702.802856 
	C791.456177,702.700500 798.549377,698.490540 804.212463,691.256348 
	C805.827576,689.193176 805.479736,687.341187 804.573303,685.237000 
	C797.002869,667.664124 789.436646,650.089294 781.918823,632.493896 
	C775.381042,617.192322 768.859375,601.883484 762.422974,586.539124 
	C758.211121,576.498108 753.285645,566.974915 744.238342,560.187744 
	C744.352966,559.675476 744.467590,559.163147 744.582214,558.650879 
	C758.554871,558.650879 772.527466,558.650879 787.000122,558.650818 
z"/>
<path fill="#000000" opacity="1.000000" stroke="none" 
	d="
M683.764160,312.727844 
	C702.496338,302.224731 716.476257,287.824768 724.359680,267.698090 
	C727.090454,269.477539 726.272827,271.654816 726.284363,273.429321 
	C726.364990,285.922699 726.532288,298.422089 726.217651,310.908112 
	C726.097717,315.668701 727.765564,316.965393 732.252197,316.745728 
	C738.733276,316.428436 745.243103,316.603882 751.737915,316.720825 
	C753.534241,316.753143 756.398376,315.903046 756.457886,318.829468 
	C756.513916,321.581360 753.813293,321.301910 751.857483,321.316223 
	C744.861206,321.367310 737.861694,321.471924 730.869080,321.309448 
	C727.360352,321.227905 726.263184,322.622772 726.275818,326.035095 
	C726.379272,354.021149 726.255676,382.008240 726.411926,409.993835 
	C726.468323,420.097137 729.912354,425.181793 736.975769,426.338409 
	C741.629211,427.100433 745.809143,425.202515 749.772278,423.023926 
	C752.831970,421.342010 755.747253,419.398773 758.746094,417.603943 
	C759.616638,417.082886 760.597473,416.665222 761.494202,417.510010 
	C762.565552,418.519318 762.086548,419.549133 761.490967,420.653778 
	C750.693787,440.677673 720.571533,452.113159 700.344177,444.103241 
	C686.033325,438.436279 680.910645,427.067566 680.806702,412.891541 
	C680.616150,386.906555 680.891235,360.918091 680.971619,334.931091 
	C680.974182,334.098175 680.999512,333.264099 680.966248,332.432526 
	C680.840210,329.281006 681.550781,325.742249 680.342590,323.076019 
	C678.778625,319.624603 674.574829,322.172180 671.722473,321.129456 
	C671.291138,320.971771 670.930420,320.620941 669.675537,319.786743 
	C674.607483,317.326416 679.028381,315.121002 683.764160,312.727844 
z"/>
<path fill="#000000" opacity="1.000000" stroke="none" 
	d="
M311.728424,457.739227 
	C314.977448,457.255280 317.579559,456.161377 320.079559,454.809082 
	C328.312805,450.355621 329.941040,446.447327 326.225372,437.874634 
	C311.861237,404.734131 297.404846,371.632904 282.788239,338.603149 
	C279.758972,331.757812 275.824707,325.335968 269.428802,320.287537 
	C294.208557,320.287537 318.988312,320.287537 344.511383,320.287537 
	C343.607483,321.576660 343.359833,322.364777 342.880524,322.548462 
	C335.343140,325.437073 334.905548,331.655334 336.538300,337.890137 
	C340.756500,353.997742 347.436615,369.234833 353.910217,385.395355 
	C357.625092,380.819214 359.003998,376.065613 360.817627,371.603668 
	C364.825989,361.742065 369.097717,351.906952 371.214417,341.444366 
	C372.856445,333.327972 372.731567,325.293732 363.142456,320.601044 
	C372.462158,319.486511 381.003693,319.500275 391.014984,319.934174 
	C386.451599,327.143829 383.029663,333.147858 380.349731,339.552582 
	C362.741089,381.634979 344.937592,423.635864 326.266754,465.260345 
	C322.729095,473.147247 318.951904,481.017639 311.580841,486.313049 
	C305.669525,490.559753 298.973389,492.092743 291.829224,492.237915 
	C288.022369,492.315216 286.528992,490.626404 286.607544,486.775818 
	C286.787628,477.948395 286.757568,469.113373 286.621796,460.284393 
	C286.562927,456.456940 287.803284,455.274597 291.698669,456.199402 
	C298.121826,457.724396 304.562622,459.992767 311.728424,457.739227 
z"/>
<path fill="#000000" opacity="1.000000" stroke="none" 
	d="
M501.323792,656.995483 
	C501.323273,660.990845 501.418823,664.490723 501.301056,667.983337 
	C501.081787,674.485962 503.457489,679.307739 509.771637,681.769470 
	C510.841705,682.186646 511.983826,682.599854 512.350891,684.660767 
	C488.753021,684.660767 465.278503,684.660767 441.775940,684.660767 
	C441.602264,682.560181 443.188721,682.302612 444.276855,681.797913 
	C450.317902,678.995911 452.650909,674.040161 452.652710,667.694885 
	C452.661255,637.890564 452.689789,608.086182 452.633911,578.281982 
	C452.622589,572.229736 451.116547,566.750427 445.595825,563.149658 
	C444.421021,562.383423 442.970947,561.569824 443.252808,559.582153 
	C444.906555,558.074280 446.992065,558.691772 448.883362,558.684082 
	C462.869263,558.627258 476.855713,558.696289 490.841644,558.641357 
	C501.326660,558.600220 501.329254,558.544373 501.329071,569.081482 
	C501.328613,598.219849 501.325623,627.358276 501.323792,656.995483 
z"/>
<path fill="#000000" opacity="1.000000" stroke="none" 
	d="
M609.797974,361.000305 
	C609.766724,353.506989 609.473389,346.501740 609.787476,339.523834 
	C610.092102,332.755829 607.718872,327.541718 602.360229,323.552582 
	C601.698120,323.059692 601.078247,322.497559 600.506958,321.902191 
	C600.312256,321.699249 600.326843,321.295532 600.227844,320.914246 
	C601.507507,319.020203 603.514038,319.736847 605.211609,319.725372 
	C616.700256,319.647827 628.189697,319.663086 639.678833,319.663147 
	C643.506409,319.663177 647.290344,319.513123 651.100708,318.851746 
	C656.963684,317.834137 657.341736,318.302917 657.343323,324.246948 
	C657.351685,355.717407 657.335876,387.187836 657.353760,418.658295 
	C657.355835,422.315796 657.234436,426.007050 657.671448,429.622070 
	C658.210449,434.079102 660.075806,437.902008 664.520081,439.941101 
	C665.675598,440.471283 666.957886,441.094543 667.277222,443.380798 
	C645.141174,443.380798 623.183350,443.380798 601.230042,443.380798 
	C601.188416,441.237366 602.315918,440.675262 603.262878,440.066437 
	C607.910950,437.078186 609.731506,432.680664 609.736755,427.345184 
	C609.758423,405.396881 609.780029,383.448608 609.797974,361.000305 
z"/>
<path fill="#000000" opacity="1.000000" stroke="none" 
	d="
M409.011230,444.106110 
	C404.115845,443.814636 399.613373,444.773743 395.486267,443.359009 
	C394.917114,441.995148 395.581970,441.323151 396.270203,440.975281 
	C403.249451,437.447906 404.670929,431.204559 404.667297,424.185974 
	C404.654114,398.705231 404.685577,373.224518 404.672028,347.743774 
	C404.666290,336.995148 405.558594,325.804810 391.929932,321.452179 
	C393.613159,318.979370 395.588867,319.708740 397.222015,319.700714 
	C411.044525,319.633087 424.867462,319.660828 438.690277,319.638855 
	C440.351959,319.636230 442.033081,319.646393 443.671722,319.414337 
	C451.337128,318.328796 451.345886,318.299225 451.344727,326.182251 
	C451.340332,356.492676 451.334747,386.803131 451.312256,417.113556 
	C451.305115,426.713928 449.665375,436.901947 461.285492,442.611908 
	C452.445648,444.923309 443.917053,443.876343 435.488190,444.057892 
	C426.831970,444.244354 418.168701,444.103912 409.011230,444.106110 
z"/>
<path fill="#000000" opacity="1.000000" stroke="none" 
	d="
M493.091217,500.784332 
	C505.376892,509.862427 504.233643,526.304321 497.496307,534.413879 
	C489.437042,544.114563 471.633118,546.060608 461.528046,538.368103 
	C453.681213,532.394714 451.078796,519.348999 455.704376,509.174438 
	C460.066895,499.578522 471.354340,493.869171 481.826782,496.036957 
	C485.754089,496.849945 489.597778,497.952423 493.091217,500.784332 
z"/>
<path fill="#000000" opacity="1.000000" stroke="none" 
	d="
M617.638672,263.546417 
	C632.163208,253.305298 650.815125,257.702209 656.529968,272.412445 
	C661.291382,284.668335 654.381287,298.898224 641.491150,303.381958 
	C628.852966,307.778076 613.687805,300.731506 610.387024,288.289795 
	C607.936646,279.053436 609.643616,270.416046 617.638672,263.546417 
z"/>
<path fill="#000000" opacity="1.000000" stroke="none" 
	d="
M447.597321,295.533630 
	C433.485321,310.487579 410.992249,306.016968 405.492035,287.354950 
	C402.868500,278.453461 404.917603,270.287872 411.964020,264.225800 
	C419.710999,257.561096 428.926147,255.823883 438.565125,259.610626 
	C446.794708,262.843689 451.347900,269.111755 452.474701,278.085876 
	C453.291962,284.594666 452.253967,290.308319 447.597321,295.533630 
z"/>
</svg>